<?xml version="1.0" standalone="no"?>
<!DOCTYPE svg PUBLIC "-//W3C//DTD SVG 20010904//EN"
 "http://www.w3.org/TR/2001/REC-SVG-20010904/DTD/svg10.dtd">
<svg version="1.0" xmlns="http://www.w3.org/2000/svg"
 width="216.000000pt" height="51.000000pt" viewBox="0 0 216.000000 51.000000"
 preserveAspectRatio="xMidYMid meet">
<metadata>
Created by potrace 1.10, written by Peter Selinger 2001-2011
</metadata>
<g transform="translate(0.000000,51.000000) scale(0.100000,-0.100000)"
fill="#000000" stroke="none">
<path d="M149 349 c-24 -24 -22 -62 4 -67 12 -2 17 3 17 17 0 12 -5 21 -12 21
-8 0 -6 6 4 16 23 23 66 11 74 -21 10 -40 -2 -66 -56 -127 -27 -31 -50 -61
-50 -67 0 -7 26 -11 69 -11 l69 0 7 36 c7 40 -2 61 -12 26 -4 -19 -12 -22 -51
-22 l-45 0 57 54 c45 43 56 61 56 86 0 66 -85 105 -131 59z"/>
<path d="M1052 363 c-31 -12 -37 -73 -7 -73 18 0 26 25 13 38 -14 14 11 26 39
20 13 -2 18 -12 18 -38 0 -29 -5 -37 -30 -50 -28 -14 -29 -15 -8 -18 48 -7 69
-75 34 -106 -28 -25 -63 -13 -55 18 7 28 -18 42 -36 21 -16 -19 3 -53 37 -66
32 -12 89 5 103 31 17 32 11 67 -14 87 -23 19 -23 19 -5 42 24 30 24 56 -1 81
-19 19 -59 25 -88 13z"/>
<path d="M1957 352 c-21 -23 -22 -61 -2 -89 14 -21 14 -24 -5 -43 -26 -26 -26
-72 0 -95 27 -24 83 -24 110 0 27 24 27 85 0 110 -17 16 -18 21 -7 34 25 29
26 49 6 75 -25 32 -77 35 -102 8z m77 -8 c20 -8 21 -57 2 -74 -12 -9 -21 -7
-45 11 -33 25 -38 38 -19 57 13 13 37 15 62 6z m-8 -135 c44 -27 46 -62 4 -79
-25 -10 -34 -10 -55 4 -29 19 -32 42 -9 74 19 27 19 27 60 1z"/>
<path d="M750 280 l0 -60 -60 0 c-33 0 -60 -4 -60 -10 0 -6 27 -10 60 -10 l60
0 0 -60 c0 -33 4 -60 10 -60 6 0 10 27 10 60 l0 60 60 0 c33 0 60 4 60 10 0 6
-27 10 -60 10 l-60 0 0 60 c0 33 -4 60 -10 60 -6 0 -10 -27 -10 -60z"/>
<path d="M341 259 c-21 -20 -28 -39 -14 -39 4 0 17 12 29 27 18 23 24 25 37
15 13 -11 13 -19 2 -63 -13 -49 -30 -79 -45 -79 -4 0 -5 12 -2 26 4 20 1 25
-9 22 -21 -7 -24 -47 -4 -54 9 -4 27 -2 41 4 15 7 24 8 24 2 0 -22 59 -10 79
17 28 35 18 43 -13 10 -15 -16 -31 -24 -40 -21 -20 8 -20 13 -1 79 16 54 47
85 42 42 -1 -14 3 -22 13 -22 9 0 15 9 15 25 0 24 -3 25 -67 27 -53 1 -70 -3
-87 -18z"/>
<path d="M1217 262 c-19 -21 -22 -42 -7 -42 6 0 10 6 10 14 0 16 28 41 36 33
3 -3 -2 -29 -11 -57 -22 -67 -11 -100 35 -100 35 0 37 -8 10 -38 -24 -25 -71
-32 -50 -7 14 17 5 36 -15 28 -22 -8 -18 -41 6 -53 27 -15 72 2 93 35 18 27
61 193 53 201 -13 13 -26 -10 -38 -64 -12 -59 -39 -95 -64 -85 -19 7 -19 41 0
86 8 20 12 43 9 51 -8 22 -47 20 -67 -2z"/>
<path d="M1525 250 c-4 -6 40 -10 125 -10 85 0 129 4 125 10 -4 6 -57 10 -125
10 -68 0 -121 -4 -125 -10z"/>
<path d="M1520 170 c0 -6 50 -10 130 -10 80 0 130 4 130 10 0 6 -50 10 -130
10 -80 0 -130 -4 -130 -10z"/>
</g>
</svg>
