<?xml version="1.0" encoding="UTF-8"?>
<svg version="1.1" xmlns="http://www.w3.org/2000/svg" width="648" height="385">
<path d="M0 0 C3.98413288 3.09877002 4.95414374 6.11933747 6 11 C6 12.32 6 13.64 6 15 C4.35 15.33 2.7 15.66 1 16 C0.68546875 15.37351562 0.3709375 14.74703125 0.046875 14.1015625 C-0.38109375 13.28429687 -0.8090625 12.46703125 -1.25 11.625 C-1.66765625 10.81289062 -2.0853125 10.00078125 -2.515625 9.1640625 C-4.19084535 6.72176756 -5.22746237 5.96548331 -8 5 C-13.87818511 4.16336367 -18.83999063 4.98188131 -24 8 C-34.34431788 16.95181355 -36.54159491 32.29572378 -37.5284729 45.23722839 C-38.07931781 53.25406482 -38.15228198 61.25156768 -38.15771484 69.2824707 C-38.16239751 70.86284523 -38.16754339 72.44321843 -38.17311096 74.02359009 C-38.18428945 77.39824099 -38.1927721 80.7728836 -38.19923019 84.14754677 C-38.21002831 89.50075571 -38.23030165 94.85390408 -38.25234985 100.20707703 C-38.31388535 115.41984276 -38.36822261 130.63260276 -38.40136719 145.84545898 C-38.41979982 154.26953573 -38.44883545 162.69350846 -38.4893719 171.11750859 C-38.51028288 175.55955424 -38.52587646 180.00146984 -38.52817917 184.44356728 C-38.53035032 188.62577688 -38.54646628 192.80771494 -38.57256889 196.98984146 C-38.57966816 198.5097891 -38.58190947 200.02976998 -38.57846642 201.5497303 C-38.54503401 219.13900564 -39.95407618 238.800564 -52.765625 252.09375 C-60.59791206 258.77584106 -70.68617273 261.54762206 -80.8671875 261.24609375 C-85.92123174 260.6629348 -89.17111555 258.75680755 -92.875 255.375 C-95.5043127 251.19903277 -95.88140744 247.85151395 -96 243 C-94.02 242.01 -94.02 242.01 -92 241 C-91.63648437 241.61488281 -91.27296875 242.22976563 -90.8984375 242.86328125 C-86.81540449 249.55326006 -86.81540449 249.55326006 -80 253 C-74.02917281 253.2296472 -68.57818207 251.94868204 -64 248 C-59.52481438 242.7343604 -57.61500008 236.61235883 -56 230 C-55.80535156 229.25363281 -55.61070313 228.50726563 -55.41015625 227.73828125 C-54.21334662 222.59287344 -53.75274926 217.451941 -53.45516968 212.18762207 C-53.41251523 211.44165661 -53.36986079 210.69569116 -53.32591379 209.92712069 C-52.91027374 202.13868807 -52.84767127 194.35854397 -52.84228516 186.56054688 C-52.83759838 184.99943402 -52.83245188 183.4383225 -52.82688904 181.87721252 C-52.8157421 178.55336134 -52.80724505 175.22951841 -52.80076981 171.90565491 C-52.78994059 166.6320172 -52.76966193 161.35844027 -52.74765015 156.08483887 C-52.68621056 141.10167214 -52.63175055 126.11851224 -52.59863281 111.13525391 C-52.58019915 102.83091302 -52.55116674 94.52667765 -52.5106281 86.22241449 C-52.4897277 81.84636493 -52.474125 77.47044717 -52.47182083 73.09434509 C-52.46964944 68.9769352 -52.45353124 64.85980103 -52.42743111 60.74247551 C-52.42033413 59.24671392 -52.41808935 57.75091858 -52.42153358 56.25514412 C-52.44714812 42.99794169 -51.83180227 28.23942046 -45.3125 16.375 C-44.78922119 15.3854834 -44.78922119 15.3854834 -44.25537109 14.37597656 C-39.29247657 5.42181841 -32.74432348 0.9566789 -23 -2 C-15.434133 -3.824566 -6.61174041 -4.62821828 0 0 Z " fill="#000000" transform="translate(162,79)"/>
<path d="M0 0 C1.04422032 3.98269393 0.87159706 6.88065298 0.05957031 10.90087891 C-0.17107117 12.06624176 -0.40171265 13.23160461 -0.63934326 14.43228149 C-0.89757874 15.68439423 -1.15581421 16.93650696 -1.421875 18.2265625 C-1.68589173 19.5381322 -1.94916464 20.84985182 -2.21173096 22.16171265 C-2.76417456 24.91161065 -3.32293933 27.66011888 -3.88671875 30.40771484 C-4.60293743 33.89885133 -5.30761683 37.39218121 -6.00797653 40.88652992 C-6.55213768 43.59839095 -7.10049129 46.30939033 -7.65024567 49.02012253 C-8.03632399 50.9245179 -8.42062236 52.82927384 -8.80487061 54.73403931 C-10.27797141 61.90590686 -11.96877671 68.96522584 -14 76 C-13.12275269 75.42475586 -13.12275269 75.42475586 -12.2277832 74.83789062 C-6.375 71 -6.375 71 -3 71 C-2.67 71.99 -2.34 72.98 -2 74 C-3.55933321 75.27471705 -5.12261706 76.54460214 -6.6875 77.8125 C-7.55761719 78.52019531 -8.42773438 79.22789062 -9.32421875 79.95703125 C-15.68980902 84.81718265 -15.68980902 84.81718265 -19.6875 85.375 C-20.8321875 85.189375 -20.8321875 85.189375 -22 85 C-24.55694972 81.16457543 -24.04045639 79.34097467 -23.625 74.8125 C-23.45871094 72.90404297 -23.45871094 72.90404297 -23.2890625 70.95703125 C-23.19367188 69.98121094 -23.09828125 69.00539063 -23 68 C-23.37769531 68.4846875 -23.75539063 68.969375 -24.14453125 69.46875 C-29.34070228 75.79663978 -35.62578021 81.3128901 -43 85 C-46.4375 85.3125 -46.4375 85.3125 -50 85 C-53.53575622 81.58210232 -54.16605511 77.82637273 -54.25 73.0625 C-54.08372319 59.05829772 -48.90149815 47.27114103 -39.32421875 37.203125 C-33.43812453 31.62370124 -28.20750813 28.92442442 -20 29 C-16.4375 29.4375 -16.4375 29.4375 -14 30 C-13.90912109 29.11248047 -13.90912109 29.11248047 -13.81640625 28.20703125 C-13.10333692 21.48223897 -13.10333692 21.48223897 -12.4375 18.375 C-11.85861392 15.23247559 -11.93750959 12.18701073 -12 9 C-14.64 9 -17.28 9 -20 9 C-20 7.68 -20 6.36 -20 5 C-17.04283593 4.16247839 -14.084087 3.33069969 -11.125 2.5 C-10.28324219 2.26152344 -9.44148438 2.02304688 -8.57421875 1.77734375 C-7.76855469 1.55175781 -6.96289062 1.32617188 -6.1328125 1.09375 C-5.38918457 0.88427734 -4.64555664 0.67480469 -3.87939453 0.45898438 C-2 0 -2 0 0 0 Z M-34 40 C-42.4708537 51.19066211 -43.49282387 62.47472256 -43 76 C-35.46928228 75.1347686 -31.74278146 71.3770149 -27.07421875 65.62890625 C-20.78453204 56.99573884 -17.54413912 48.31147297 -15 38 C-21.57648627 34.28026795 -28.42988368 34.80122477 -34 40 Z " fill="#010101" transform="translate(503,153)"/>
<path d="M0 0 C2.30859375 1.51953125 2.30859375 1.51953125 4 3 C3.46930939 6.82097239 2.50298434 9.06171403 0 12 C-2 11 -4 10 -6 9 C-8.3329866 8.95977609 -10.66706666 8.95679753 -13 9 C-16.43680175 14.37902794 -18.02398225 19.20189332 -19.25 25.4375 C-19.42273438 26.26443359 -19.59546875 27.09136719 -19.7734375 27.94335938 C-20.19308998 29.96002266 -20.5980833 31.97972725 -21 34 C-17.04 34 -13.08 34 -9 34 C-9.33 35.98 -9.66 37.96 -10 40 C-13.96 40 -17.92 40 -22 40 C-22.30292969 41.78921875 -22.60585938 43.5784375 -22.91796875 45.421875 C-32.22360731 99.51465143 -32.22360731 99.51465143 -44.984375 109.5625 C-48.44246585 111.85056011 -51.76193941 113.88227609 -56 114 C-58.3125 113.0625 -58.3125 113.0625 -60 112 C-59.5020163 108.26512223 -59.12508244 106.18762365 -57 103 C-56.37351563 103.0721875 -55.74703125 103.144375 -55.1015625 103.21875 C-54.28429687 103.3115625 -53.46703125 103.404375 -52.625 103.5 C-51.81289062 103.5928125 -51.00078125 103.685625 -50.1640625 103.78125 C-48.03087175 104.03352351 -48.03087175 104.03352351 -46 104 C-43.47381329 96.20506891 -41.69093179 88.33799838 -40.0625 80.3125 C-39.6744519 78.42374146 -39.6744519 78.42374146 -39.27856445 76.49682617 C-37.4147865 67.32028022 -35.72562075 58.12164601 -34.20532227 48.88208008 C-34.05893311 47.99931396 -33.91254395 47.11654785 -33.76171875 46.20703125 C-33.63756592 45.4385083 -33.51341309 44.66998535 -33.38549805 43.87817383 C-33 42 -33 42 -32 40 C-34.97 40 -37.94 40 -41 40 C-40.34 38.02 -39.68 36.04 -39 34 C-36.36 34 -33.72 34 -31 34 C-30.9175 32.741875 -30.835 31.48375 -30.75 30.1875 C-29.59318627 20.24515495 -26.06409065 13.01434353 -19 6 C-17.948125 4.824375 -17.948125 4.824375 -16.875 3.625 C-12.08995532 -0.52203872 -6.10709092 -0.92351131 0 0 Z " fill="#010101" transform="translate(297,153)"/>
<path d="M0 0 C4.8707029 3.81757795 5.66577402 10.22846185 7 16 C10.49620872 12.6341324 13.33351899 9.00959827 16.21875 5.12109375 C18.53845929 2.35880835 20.44625602 0.24214192 24.10546875 -0.328125 C29.88888889 -0.11111111 29.88888889 -0.11111111 31 1 C30.77265843 5.01636782 30.57290919 7.32292551 27.9375 10.4375 C26.9784375 11.2109375 26.9784375 11.2109375 26 12 C25.34 11.34 24.68 10.68 24 10 C20.4919445 10.08858726 19.14301457 10.87245252 16.5078125 13.22265625 C11.56240269 18.86098325 11.56240269 18.86098325 9.6875 25.875 C10.19540482 27.82882091 10.19540482 27.82882091 11 30 C11.31582031 31.093125 11.63164062 32.18625 11.95703125 33.3125 C13.63304011 39.28661811 13.63304011 39.28661811 16 45 C20.17762205 44.53581977 22.17682961 44.09204376 25 41 C25.99 41 26.98 41 28 41 C28.495 42.98 28.495 42.98 29 45 C27.58829091 46.29708314 26.17041804 47.58745978 24.75 48.875 C23.96109375 49.59429687 23.1721875 50.31359375 22.359375 51.0546875 C19.23330235 53.63214475 17.00822012 54.8529679 13 55.4375 C10 55 10 55 7.953125 52.9296875 C5.71074064 49.56611097 4.77135185 46.59052315 3.75 42.6875 C3.41484375 41.43324219 3.0796875 40.17898437 2.734375 38.88671875 C2.49203125 37.93410156 2.2496875 36.98148438 2 36 C1.46890625 36.73605469 0.9378125 37.47210938 0.390625 38.23046875 C-0.31578125 39.20628906 -1.0221875 40.18210938 -1.75 41.1875 C-2.44609375 42.15042969 -3.1421875 43.11335938 -3.859375 44.10546875 C-10.51871417 53.11015912 -10.51871417 53.11015912 -14 55 C-19.94588235 55.62588235 -19.94588235 55.62588235 -23 53.8125 C-24 52 -24 52 -23.8125 49.5625 C-23.06651171 47.20976771 -22.19665408 45.15397735 -21 43 C-20.01 43 -19.02 43 -18 43 C-17.67 43.66 -17.34 44.32 -17 45 C-14.23723823 44.47731534 -11.6739124 43.89130413 -9 43 C-8.28159794 41.69381444 -7.62210449 40.35469857 -7 39 C-5.94435405 37.57821861 -4.88148908 36.16177655 -3.8125 34.75 C-1.58924984 31.41240685 -1.00848698 30.26309651 -0.875 26.125 C-1.84107129 21.72893249 -3.52284959 17.50389321 -5.16015625 13.3203125 C-6 11 -6 11 -6 9 C-11.56717533 11.35456323 -11.56717533 11.35456323 -17 14 C-17.73828125 12.29296875 -17.73828125 12.29296875 -18 10 C-16.41796875 7.67578125 -16.41796875 7.67578125 -14.1875 5.3125 C-13.45917969 4.52488281 -12.73085938 3.73726562 -11.98046875 2.92578125 C-8.44748722 -0.5096426 -4.76198971 -0.78577564 0 0 Z " fill="#010101" transform="translate(373,183)"/>
<path d="M0 0 C2.4609375 0.03125 2.4609375 0.03125 4.6875 0.4375 C9.19011341 5.17101666 10.6875 11.00923231 10.6875 17.4375 C11.3475 17.4375 12.0075 17.4375 12.6875 17.4375 C12.92597656 16.71949219 13.16445313 16.00148437 13.41015625 15.26171875 C14.88394976 12.00314777 16.70560846 9.87597342 19.125 7.25 C19.90746094 6.39019531 20.68992187 5.53039062 21.49609375 4.64453125 C24.47693188 1.64243938 25.96674915 0.48807901 30.25 0.1875 C33.6875 0.4375 33.6875 0.4375 35.6875 2.4375 C35.36550066 6.40882519 33.85170003 9.14415213 31.6875 12.4375 C30.6975 11.7775 29.7075 11.1175 28.6875 10.4375 C25.58344948 10.60994725 24.10601962 11.06424883 21.7734375 13.14453125 C21.20882812 13.83933594 20.64421875 14.53414062 20.0625 15.25 C19.49273438 15.93707031 18.92296875 16.62414062 18.3359375 17.33203125 C17.51996094 18.37423828 17.51996094 18.37423828 16.6875 19.4375 C16.08808594 20.02273437 15.48867188 20.60796875 14.87109375 21.2109375 C13.01943525 24.69425547 14.31411718 27.67075982 15.375 31.25 C15.56255859 31.93642578 15.75011719 32.62285156 15.94335938 33.33007812 C16.50549445 35.37192271 17.0934029 37.40475118 17.6875 39.4375 C18.06973446 40.77453281 18.45129445 42.1117587 18.83203125 43.44921875 C19.25548828 44.92841797 19.25548828 44.92841797 19.6875 46.4375 C22.80563478 45.51623291 25.28383896 44.74889566 27.875 42.75 C28.473125 42.316875 29.07125 41.88375 29.6875 41.4375 C30.6775 41.7675 31.6675 42.0975 32.6875 42.4375 C32.17139962 46.46670471 30.27076142 48.04889466 27.25 50.625 C26.44691406 51.31980469 25.64382813 52.01460937 24.81640625 52.73046875 C21.08022363 55.72627023 18.47161143 55.94109068 13.6875 55.4375 C10.88268772 51.70949573 9.5141388 47.50372571 8 43.125 C7.77505859 42.47982422 7.55011719 41.83464844 7.31835938 41.16992188 C6.76976467 39.59417113 6.22793041 38.01606946 5.6875 36.4375 C5.2028125 37.22253906 4.718125 38.00757813 4.21875 38.81640625 C-4.02862599 51.74258208 -4.02862599 51.74258208 -10.3125 55.4375 C-14.125 56.0625 -14.125 56.0625 -17.3125 55.4375 C-19.25 53.9375 -19.25 53.9375 -20.3125 52.4375 C-19.11350302 49.3543649 -17.83549523 46.37470508 -16.3125 43.4375 C-15.3225 43.7675 -14.3325 44.0975 -13.3125 44.4375 C-13.3125 45.0975 -13.3125 45.7575 -13.3125 46.4375 C-8.39298398 45.18130404 -6.16359661 43.67039708 -3.125 39.625 C-2.47144531 38.77292969 -1.81789063 37.92085937 -1.14453125 37.04296875 C-0.53996094 36.18316406 0.06460938 35.32335937 0.6875 34.4375 C1.28433594 33.61507812 1.88117187 32.79265625 2.49609375 31.9453125 C4.01632005 28.74536075 3.63274721 27.45626496 2.5625 24.125 C2.26472656 23.17367187 1.96695313 22.22234375 1.66015625 21.2421875 C0.40045517 17.60979644 -0.8961273 14.0121549 -2.3125 10.4375 C-6.00164747 10.88467329 -6.00164747 10.88467329 -8.875 13.0625 C-9.349375 13.51625 -9.82375 13.97 -10.3125 14.4375 C-12.5 14.125 -12.5 14.125 -14.3125 13.4375 C-12.87751627 10.22861679 -11.09506013 7.85943016 -8.75 5.25 C-8.12996094 4.55519531 -7.50992188 3.86039063 -6.87109375 3.14453125 C-4.43625113 0.47779885 -3.66780784 0.19809764 0 0 Z " fill="#010101" transform="translate(533.3125,182.5625)"/>
<path d="M0 0 C0.99 0.33 1.98 0.66 3 1 C2.63648438 1.53625 2.27296875 2.0725 1.8984375 2.625 C-8.32128882 18.55729129 -12.59722562 36.75488104 -12.5 55.5625 C-12.49427979 56.86590332 -12.48855957 58.16930664 -12.48266602 59.51220703 C-12.15638391 77.36873656 -8.05335626 95.91996561 2 111 C1.67 111.99 1.34 112.98 1 114 C-14.54991343 100.17077371 -22.5518108 81.7247304 -23.9140625 61.02050781 C-24.73674441 41.67813419 -19.60346241 21.29800272 -6.51196289 6.6159668 C-4.39370817 4.35200297 -2.2248603 2.15942323 0 0 Z " fill="#010101" transform="translate(339,151)"/>
<path d="M0 0 C10.53362676 4.61292007 17.06468247 15.84516353 21.25 26.046875 C22.29378296 29.00937664 23.18546085 31.96696727 24 35 C24.33837891 36.20076172 24.33837891 36.20076172 24.68359375 37.42578125 C28.20773396 52.66464961 26.93803818 69.28334675 22 84 C21.649375 85.06476563 21.29875 86.12953125 20.9375 87.2265625 C17.09407874 97.55575713 10.27157856 106.73715053 2 114 C1.34 114 0.68 114 0 114 C1.36088487 110.41397163 2.9878098 107.12014022 4.8125 103.75 C7.33369932 98.75075147 9.17846239 93.79112908 10.75 88.4375 C10.94827393 87.7662207 11.14654785 87.09494141 11.35083008 86.40332031 C18.49143761 60.99142757 16.74478635 32.78995086 5 9 C3.45403873 6.51354532 1.81844974 4.29980408 0 2 C0 1.34 0 0.68 0 0 Z " fill="#010101" transform="translate(412,151)"/>
<path d="M0 0 C1.16283798 3.44912993 0.82141445 5.80004735 0.00390625 9.31640625 C-0.22490234 10.32767578 -0.45371094 11.33894531 -0.68945312 12.38085938 C-0.93630859 13.43080078 -1.18316406 14.48074219 -1.4375 15.5625 C-1.9180358 17.64652129 -2.39601881 19.73113332 -2.87109375 21.81640625 C-3.08693115 22.73881104 -3.30276855 23.66121582 -3.52514648 24.61157227 C-4.09749888 27.08453949 -4.09749888 27.08453949 -4 30 C-3.46890625 29.59007813 -2.9378125 29.18015625 -2.390625 28.7578125 C-1.68421875 28.21898438 -0.9778125 27.68015625 -0.25 27.125 C0.44609375 26.59132813 1.1421875 26.05765625 1.859375 25.5078125 C6.34643704 22.34721771 9.41450319 21.48282437 15 22 C18.41132099 27.11698148 17.51427161 33.02943199 17 39 C14.64800874 48.79592237 10.0019224 55.94928528 2 62 C-0.81566255 63.40783127 -3.2363707 63.2076814 -6.375 63.25 C-8.08816406 63.28867188 -8.08816406 63.28867188 -9.8359375 63.328125 C-13.35435661 62.96325191 -14.49480115 62.4222397 -17 60 C-18.37538363 53.53413739 -16.54616779 46.28235717 -15.25 39.90625 C-15.07243164 38.99290894 -14.89486328 38.07956787 -14.71191406 37.1385498 C-14.15004247 34.25722983 -13.57553077 31.37861951 -13 28.5 C-12.42712144 25.59235296 -11.85685678 22.68421002 -11.28808594 19.77575684 C-10.93492774 17.97447379 -10.57890178 16.17375014 -10.21972656 14.37365723 C-9.33261535 10.21917536 -9.33261535 10.21917536 -9 6 C-10.98 6 -12.96 6 -15 6 C-15 5.01 -15 4.02 -15 3 C-13.0636296 2.49564306 -11.12585854 1.99666126 -9.1875 1.5 C-8.10855469 1.2215625 -7.02960938 0.943125 -5.91796875 0.65625 C-3 0 -3 0 0 0 Z M-1 32 C-6.60152152 37.64221054 -9.03664751 44.15246564 -10 52 C-9.86324145 54.69932448 -9.86324145 54.69932448 -9 57 C-6.27124998 59.23545319 -6.27124998 59.23545319 -3.625 58.9375 C1.1927428 57.21687757 3.21670847 54.61058821 5.390625 50.140625 C8.36359791 43.135344 10.28378233 37.66212286 10 30 C9.67 29.34 9.34 28.68 9 28 C4.42463848 28 2.33277984 29.10336172 -1 32 Z " fill="#010101" transform="translate(198,47)"/>
<path d="M0 0 C1.24523437 0.01804687 2.49046875 0.03609375 3.7734375 0.0546875 C5.18496094 0.08949219 5.18496094 0.08949219 6.625 0.125 C7.81648924 3.69946772 7.3363249 5.10222386 6.41015625 8.7109375 C6.13623047 9.80664062 5.86230469 10.90234375 5.58007812 12.03125 C5.28552734 13.1759375 4.99097656 14.320625 4.6875 15.5 C4.11059182 17.7564657 3.53878089 20.0142422 2.97265625 22.2734375 C2.58605835 23.77656494 2.58605835 23.77656494 2.19165039 25.31005859 C1.64947847 28.00339861 1.51696183 30.38740673 1.625 33.125 C2.223125 32.609375 2.82125 32.09375 3.4375 31.5625 C4.159375 31.088125 4.88125 30.61375 5.625 30.125 C6.615 30.455 7.605 30.785 8.625 31.125 C7.18539512 34.66627405 5.47533201 36.26998912 2.3125 38.375 C1.17361328 39.15617187 1.17361328 39.15617187 0.01171875 39.953125 C-2.669217 41.26946007 -4.42723147 41.35456074 -7.375 41.125 C-8.375 34.5 -8.375 34.5 -8.375 31.125 C-9.01566406 31.76308594 -9.65632813 32.40117187 -10.31640625 33.05859375 C-18.26538852 40.65218188 -18.26538852 40.65218188 -22.375 41.3125 C-25.375 41.125 -25.375 41.125 -27.375 39.125 C-28.55788785 28.24518264 -26.80599906 19.30079831 -21.5 9.75 C-15.37983785 2.1897997 -9.5829638 -0.18081064 0 0 Z M-13.953125 8.12109375 C-19.28663188 15.63782185 -21.31470098 25.06210613 -20.375 34.125 C-16.00977031 33.69259517 -13.67464826 30.82191548 -10.875 27.75 C-10.38741211 27.21560303 -9.89982422 26.68120605 -9.39746094 26.13061523 C-5.27201942 21.39500446 -2.3697724 16.42190932 -1.375 10.125 C-1.73116633 7.395105 -1.73116633 7.395105 -2.375 5.125 C-7.04462762 4.65803724 -10.40606299 4.77426911 -13.953125 8.12109375 Z " fill="#010101" transform="translate(164.375,302.875)"/>
</svg>
