<?xml version="1.0" standalone="no"?>
<!DOCTYPE svg PUBLIC "-//W3C//DTD SVG 20010904//EN"
 "http://www.w3.org/TR/2001/REC-SVG-20010904/DTD/svg10.dtd">
<svg version="1.0" xmlns="http://www.w3.org/2000/svg"
 width="300.000000pt" height="101.000000pt" viewBox="0 0 300.000000 101.000000"
 preserveAspectRatio="xMidYMid meet">
<metadata>
Created by potrace 1.10, written by Peter Selinger 2001-2011
</metadata>
<g transform="translate(0.000000,101.000000) scale(0.100000,-0.100000)"
fill="#000000" stroke="none">
<path d="M1647 708 c-13 -46 -30 -105 -37 -132 l-13 -49 -28 61 c-27 59 -29
60 -53 49 -30 -14 -35 -31 -7 -22 15 5 24 -6 47 -60 16 -36 32 -65 35 -65 4 0
23 53 43 118 20 64 41 127 46 140 l10 22 595 0 c390 0 595 3 595 10 0 7 -208
10 -604 10 l-604 0 -25 -82z"/>
<path d="M1903 733 c-7 -2 -13 -12 -13 -20 0 -14 3 -14 19 1 21 19 41 14 41
-10 0 -9 -16 -36 -36 -60 l-36 -44 51 0 c28 0 51 4 51 9 0 6 -16 7 -35 4 -19
-3 -35 -3 -35 0 0 3 14 19 30 35 53 54 28 112 -37 85z"/>
<path d="M993 667 c-2 -29 -9 -75 -18 -102 -8 -28 -15 -53 -15 -56 0 -3 20 -6
43 -7 47 -2 68 12 85 58 13 35 -4 90 -27 90 -10 0 -24 -7 -31 -15 -11 -13 -9
-15 11 -13 22 3 24 -1 23 -36 -2 -43 -33 -80 -59 -70 -14 6 -13 53 2 77 4 6 8
23 9 37 1 14 5 40 9 58 6 27 5 32 -11 32 -16 0 -19 -9 -21 -53z"/>
<path d="M1736 711 c-4 -5 -1 -11 5 -13 8 -3 7 -19 -4 -58 -8 -30 -18 -73 -22
-96 l-6 -40 44 -2 c39 -2 47 1 62 25 40 61 13 152 -33 110 -27 -25 -32 -21
-21 15 13 46 11 68 -5 68 -8 0 -17 -4 -20 -9z m78 -119 c-2 -42 -30 -84 -52
-80 -23 5 -21 72 4 99 26 29 49 20 48 -19z"/>
<path d="M1290 665 l0 -45 -40 0 c-29 0 -40 -4 -40 -15 0 -12 8 -14 40 -9 l40
7 0 -47 c0 -25 5 -46 10 -46 6 0 10 21 10 46 l0 45 38 -3 c20 -2 39 2 42 7 3
6 -13 11 -37 13 l-43 3 0 45 c0 24 -4 44 -10 44 -5 0 -10 -20 -10 -45z"/>
<path d="M2442 651 c-62 -88 -63 -91 -8 -91 38 0 46 -3 46 -18 0 -10 -5 -23
-12 -30 -9 -9 -6 -12 15 -12 24 0 26 3 21 30 -6 26 -4 30 15 30 15 0 21 6 21
22 0 17 -3 19 -12 10 -22 -22 -28 -12 -28 53 0 36 -4 65 -9 65 -4 0 -27 -27
-49 -59z m38 -26 c0 -43 -1 -45 -30 -45 -16 0 -30 2 -30 5 0 7 52 85 56 85 2
0 4 -20 4 -45z"/>
<path d="M2608 632 c-24 -27 -38 -59 -38 -84 0 -47 47 -65 73 -28 l14 21 6
-21 c6 -24 29 -26 48 -4 12 15 11 16 -9 10 -27 -9 -29 8 -9 75 l14 45 -42 2
c-29 1 -47 -4 -57 -16z m60 -28 c5 -52 -58 -111 -74 -69 -8 20 14 83 34 95 25
14 37 7 40 -26z"/>
<path d="M2767 625 c-67 -67 -16 -165 57 -110 25 19 15 31 -12 14 -25 -16 -52
-5 -52 21 0 49 53 109 66 75 9 -22 24 -18 24 5 0 30 -51 27 -83 -5z"/>
<path d="M740 590 c0 -6 37 -10 90 -10 53 0 90 4 90 10 0 6 -37 10 -90 10 -53
0 -90 -4 -90 -10z"/>
<path d="M2100 590 c0 -6 38 -10 95 -10 57 0 95 4 95 10 0 6 -38 10 -95 10
-57 0 -95 -4 -95 -10z"/>
<path d="M1210 480 c0 -6 39 -10 96 -10 61 0 93 4 89 10 -3 6 -46 10 -96 10
-53 0 -89 -4 -89 -10z"/>
<path d="M165 400 c-16 -18 -16 -20 -2 -20 10 0 17 6 17 13 1 18 30 -24 30
-43 0 -19 -40 -60 -58 -60 -7 0 -12 -7 -12 -15 0 -26 28 -17 51 17 l23 32 8
-32 c9 -33 25 -41 46 -20 17 17 15 33 -3 18 -12 -10 -17 -7 -26 16 -8 23 -7
34 5 54 8 14 22 24 30 24 18 -2 29 23 14 32 -6 4 -21 -5 -34 -21 -13 -16 -24
-27 -26 -25 -2 3 -8 14 -14 24 -15 28 -28 29 -49 6z"/>
<path d="M420 390 c0 -6 38 -10 95 -10 57 0 95 4 95 10 0 6 -38 10 -95 10 -57
0 -95 -4 -95 -10z"/>
<path d="M710 360 c0 -7 368 -10 1085 -10 717 0 1085 3 1085 10 0 7 -368 10
-1085 10 -717 0 -1085 -3 -1085 -10z"/>
<path d="M508 333 c-119 -5 -113 -23 7 -23 78 0 95 3 95 15 0 8 -3 14 -7 13
-5 -1 -47 -4 -95 -5z"/>
<path d="M1658 263 c-10 -2 -18 -13 -18 -24 0 -23 16 -25 28 -3 5 9 18 14 33
12 37 -5 37 -48 1 -90 -36 -41 -62 -80 -62 -91 0 -4 28 -7 63 -5 56 3 62 5 65
25 4 26 -13 31 -22 8 -5 -14 -76 -23 -76 -9 0 3 20 29 45 57 46 53 57 91 33
115 -12 12 -56 14 -90 5z"/>
<path d="M1845 187 c-34 -29 -45 -96 -20 -117 15 -12 21 -12 45 2 24 14 29 14
34 2 7 -19 30 -18 47 2 12 15 11 16 -10 9 -23 -7 -24 -6 -17 26 21 97 21 94
-18 96 -24 2 -43 -4 -61 -20z m65 -26 c0 -31 -34 -81 -55 -81 -17 0 -25 22
-18 52 14 58 73 82 73 29z"/>
</g>
</svg>
